<svg width="32" height="32" viewBox="0 0 32 32" fill="none" xmlns="http://www.w3.org/2000/svg">
<path d="M11.3196 3.27344H20.6927C22.5775 3.27344 23.6727 3.78434 24.3607 4.49219C25.065 5.21694 25.4149 6.2191 25.6566 7.35449V7.35547L27.1634 14.5693L27.1653 14.5771C27.1945 14.7054 27.163 14.8544 27.0667 14.9854C26.9583 15.1026 26.8182 15.1669 26.6663 15.167H5.33234C5.1753 15.1669 5.0433 15.1006 4.95441 14.9863L4.94562 14.9756L4.888 14.8848C4.84015 14.7864 4.82326 14.6691 4.84698 14.5645L4.84894 14.5557L6.35577 7.35645C6.59745 6.21355 6.94644 5.21057 7.6507 4.4873C8.33826 3.78127 9.43396 3.27344 11.3196 3.27344ZM11.3196 4.27344C9.91805 4.27344 8.97685 4.57286 8.34991 5.2168C7.74545 5.8377 7.52165 6.69965 7.33722 7.5625V7.56348L6.07062 13.5635L5.94269 14.167H26.0413L25.9153 13.5645L24.6624 7.56445L24.6614 7.5625L24.5901 7.23926C24.4156 6.48784 24.1784 5.76006 23.6497 5.2168C23.0228 4.57286 22.0806 4.27344 20.679 4.27344H11.3196Z" fill="#292D32" stroke="#868686"/>
<path d="M7.49316 14.166H24.5059C26.5548 14.166 27.5996 14.7241 28.1777 15.4307C28.7042 16.0742 28.9146 16.9202 29.0303 17.8555L29.0752 18.2607L29.8213 26.3789C29.8967 27.1991 29.6487 28.0184 29.125 28.6572L29.0166 28.7822C28.4065 29.4497 27.5285 29.8329 26.6133 29.833H24.1064C23.1303 29.833 22.6256 29.5569 22.332 29.2598C22.0185 28.9424 21.8771 28.5386 21.7412 28.124L21.4736 27.3213L21.4727 27.3174L21.3506 26.9678C21.3106 26.858 21.2706 26.7556 21.2285 26.6641C21.1413 26.4742 21.0246 26.282 20.835 26.1328C20.6433 25.9821 20.4241 25.9121 20.1973 25.876C19.977 25.8409 19.7147 25.833 19.4131 25.833H12.5859C11.9983 25.833 11.5022 25.8761 11.1396 26.1748C10.9556 26.3264 10.8404 26.5153 10.7539 26.7031C10.6706 26.884 10.5992 27.0997 10.5254 27.3213L10.2588 28.1191C10.1143 28.5456 9.97445 28.9485 9.66211 29.2646C9.37097 29.5594 8.87021 29.833 7.89258 29.833H5.38574C4.47039 29.8329 3.59157 29.4499 2.98145 28.7822H2.98242C2.38495 28.1273 2.09726 27.2537 2.17773 26.3789L2.92383 18.2588V18.2578C3.02317 17.1651 3.21384 16.1664 3.81641 15.4316C4.3962 14.7247 5.44409 14.166 7.49316 14.166ZM7.49316 15.1797C6.12206 15.1797 5.19884 15.4097 4.63672 16.0381C4.09717 16.6415 4.00443 17.5054 3.92773 18.3682L3.18164 26.4873V26.4902C3.12994 27.0941 3.3215 27.6733 3.73828 28.125V28.124C4.16121 28.596 4.77877 28.8457 5.39941 28.8457H7.90625C8.07765 28.8457 8.24286 28.8454 8.38086 28.8301C8.52473 28.8141 8.70005 28.7766 8.86035 28.6592C9.01971 28.5423 9.10783 28.3879 9.16602 28.2598C9.22172 28.137 9.2732 27.9829 9.32617 27.8271L9.32812 27.8223L9.59473 27.0088L9.59668 27.002C9.76518 26.4627 9.94352 25.9456 10.3418 25.5459C10.7206 25.1658 11.3636 24.833 12.5859 24.833H19.4131C20.5538 24.8331 21.1677 25.0863 21.5518 25.4248C21.9509 25.7766 22.1808 26.2851 22.4189 26.9863L22.6992 27.8135C22.752 27.972 22.8033 28.1272 22.8584 28.251C22.916 28.3803 23.0031 28.5365 23.1621 28.6553C23.3228 28.7752 23.4986 28.8137 23.6436 28.8301C23.7821 28.8458 23.9479 28.8457 24.1191 28.8457H26.626C27.2553 28.8457 27.8561 28.5903 28.2861 28.126L28.2871 28.125C28.7039 27.6733 28.8964 27.0942 28.8447 26.4902L28.8438 26.4873L28.0977 18.3672L28.0967 18.3652L28.0254 17.7217C27.9379 17.0872 27.7825 16.4894 27.3789 16.0381C26.8172 15.4102 25.8985 15.1797 24.5332 15.1797H7.49316Z" fill="#292D32" stroke="#868686"/>
<path d="M3.99947 10.166H5.33247C5.603 10.166 5.83247 10.3955 5.83247 10.666C5.83247 10.9365 5.603 11.166 5.33247 11.166H3.99947C3.72894 11.166 3.49947 10.9365 3.49947 10.666C3.49947 10.3955 3.72894 10.166 3.99947 10.166Z" fill="#292D32" stroke="#868686"/>
<path d="M26.6661 10.166H27.9991C28.2697 10.166 28.4991 10.3955 28.4991 10.666C28.4991 10.9365 28.2697 11.166 27.9991 11.166H26.6661C26.3956 11.166 26.1661 10.9365 26.1661 10.666C26.1661 10.3955 26.3956 10.166 26.6661 10.166Z" fill="#292D32" stroke="#868686"/>
<path d="M15.9995 3.5C16.27 3.5 16.4995 3.72948 16.4995 4V6.66699C16.4993 6.93737 16.2699 7.16699 15.9995 7.16699C15.7291 7.16699 15.4997 6.93737 15.4995 6.66699V4C15.4995 3.72948 15.7289 3.5 15.9995 3.5Z" fill="#292D32" stroke="#868686"/>
<path d="M13.9995 6.16602H17.9995C18.27 6.16602 18.4995 6.39549 18.4995 6.66602C18.4995 6.93654 18.27 7.16602 17.9995 7.16602H13.9995C13.7289 7.16602 13.4995 6.93654 13.4995 6.66602C13.4995 6.39549 13.7289 6.16602 13.9995 6.16602Z" fill="#292D32" stroke="#868686"/>
<path d="M7.99947 19.5H11.9995C12.27 19.5 12.4995 19.7295 12.4995 20C12.4995 20.2705 12.27 20.5 11.9995 20.5H7.99947C7.72894 20.5 7.49947 20.2705 7.49947 20C7.49947 19.7295 7.72894 19.5 7.99947 19.5Z" fill="#292D32" stroke="#868686"/>
<path d="M23.9995 21H19.9995C19.4528 21 18.9995 20.5467 18.9995 20C18.9995 19.4533 19.4528 19 19.9995 19H23.9995C24.5461 19 24.9995 19.4533 24.9995 20C24.9995 20.5467 24.5461 21 23.9995 21Z" fill="#292D32"/>
</svg>
