<svg width="32" height="32" viewBox="0 0 32 32" fill="none" xmlns="http://www.w3.org/2000/svg">
<path d="M2.66667 10.834H29.3337C29.604 10.8342 29.8337 11.0636 29.8337 11.334C29.8337 11.6044 29.604 11.8338 29.3337 11.834H2.66667C2.39615 11.834 2.16667 11.6045 2.16667 11.334C2.16667 11.0635 2.39615 10.834 2.66667 10.834Z" fill="#292D32" stroke="#868686"/>
<path d="M8 21.5H10.667C10.9374 21.5002 11.167 21.7296 11.167 22C11.167 22.2704 10.9374 22.4998 10.667 22.5H8C7.72948 22.5 7.5 22.2705 7.5 22C7.5 21.7295 7.72948 21.5 8 21.5Z" fill="#292D32" stroke="#868686"/>
<path d="M14 21.5H19.333C19.6035 21.5 19.833 21.7295 19.833 22C19.833 22.2705 19.6035 22.5 19.333 22.5H14C13.7295 22.5 13.5 22.2705 13.5 22C13.5 21.7295 13.7295 21.5 14 21.5Z" fill="#292D32" stroke="#868686"/>
<path d="M8.58659 4.16602H23.4001C26.0364 4.16602 27.583 4.57173 28.4977 5.47754C29.4109 6.38216 29.82 7.911 29.82 10.5195V21.4668C29.8266 24.0821 29.4208 25.6138 28.5094 26.5195C27.5967 27.4266 26.0504 27.833 23.4137 27.833H8.58659C5.94999 27.833 4.40359 27.4265 3.48894 26.5205C2.57577 25.6159 2.16669 24.0879 2.16667 21.4795V10.5195C2.16667 7.911 2.57576 6.38216 3.48894 5.47754C4.40363 4.57173 5.9503 4.16602 8.58659 4.16602ZM8.58659 5.16602C7.53288 5.16602 6.66089 5.21029 5.9528 5.35254C5.23991 5.49579 4.6525 5.74612 4.20573 6.18652C3.75822 6.6277 3.50322 7.20947 3.3571 7.91602C3.21219 8.61672 3.16667 9.47883 3.16667 10.5195V21.4658C3.16667 22.5065 3.21219 23.3686 3.3571 24.0693C3.50322 24.7759 3.75822 25.3576 4.20573 25.7988C4.6525 26.2392 5.23991 26.4896 5.9528 26.6328C6.66089 26.7751 7.53288 26.8193 8.58659 26.8193H23.4001C24.4538 26.8193 25.3258 26.7751 26.0339 26.6328C26.7468 26.4896 27.3342 26.2392 27.7809 25.7988C28.2284 25.3576 28.4834 24.7759 28.6296 24.0693C28.7745 23.3686 28.82 22.5065 28.82 21.4658V10.5195C28.82 9.47883 28.7745 8.61672 28.6296 7.91602C28.4834 7.20947 28.2284 6.6277 27.7809 6.18652C27.3342 5.74613 26.7468 5.49579 26.0339 5.35254C25.3258 5.21029 24.4538 5.16602 23.4001 5.16602H8.58659Z" fill="#292D32" stroke="#868686"/>
</svg>
