<svg width="24" height="24" viewBox="0 0 24 24" fill="none" xmlns="http://www.w3.org/2000/svg">
<path d="M17.0195 11.75C19.3178 11.75 20.2974 12.3579 20.7578 13.0625C21.2548 13.8234 21.2695 14.8467 21.2695 16V17C21.2595 18.8305 20.7933 20.1189 19.957 20.9531C19.1205 21.7875 17.8314 22.25 16 22.25H8C5.20203 22.25 3.97314 21.5099 3.3877 20.6143C2.76554 19.6621 2.75 18.3885 2.75 17V16C2.75 14.8465 2.76554 13.8234 3.2627 13.0625C3.72306 12.3579 4.70169 11.75 7 11.75C7.55382 11.75 7.89601 11.8176 8.1582 11.9189C8.42261 12.0212 8.63835 12.1694 8.94336 12.3955C8.95091 12.4019 8.9574 12.4077 8.96289 12.4121C8.967 12.4154 8.97116 12.4182 8.97461 12.4209L8.98633 12.4336L10.0068 13.5137C11.0642 14.6322 12.9565 14.6324 14.0137 13.5137L15.0273 12.4395C15.0551 12.4117 15.0625 12.4062 15.0703 12.4004L15.0723 12.3984C15.3787 12.1661 15.5956 12.0174 15.8604 11.916C16.1219 11.8159 16.4639 11.75 17.0195 11.75ZM17 12.25C16.629 12.25 16.3418 12.2714 16.0781 12.3623C15.8134 12.4536 15.6102 12.6034 15.4014 12.7588L15.3662 12.7852L15.3359 12.8174L14.3672 13.8457C13.7406 14.5071 12.9013 14.8701 12 14.8701C11.0987 14.8701 10.2594 14.5071 9.63281 13.8457H9.63184L8.66406 12.8174L8.63379 12.7852L8.59863 12.7588L8.44141 12.6445C8.28383 12.5326 8.12035 12.4308 7.92188 12.3623C7.65824 12.2714 7.37099 12.25 7 12.25C5.37837 12.25 4.32615 12.4909 3.75879 13.2363C3.47976 13.603 3.36064 14.0394 3.30469 14.4902C3.24934 14.9365 3.25 15.4525 3.25 16V17C3.25 17.6757 3.24917 18.3184 3.32031 18.8828C3.39205 19.4518 3.54209 19.9927 3.87891 20.4492C4.56629 21.3808 5.86227 21.75 8 21.75H16C17.5471 21.75 18.7694 21.422 19.5957 20.5957C20.422 19.7694 20.75 18.5471 20.75 17V16C20.75 15.4525 20.7507 14.9365 20.6953 14.4902C20.6394 14.0394 20.5202 13.603 20.2412 13.2363C19.6738 12.4909 18.6216 12.25 17 12.25Z" fill="#353535" stroke="#AEAEAE"/>
<path d="M9 1.75H15C17.2983 1.75 18.2769 2.3579 18.7373 3.0625C19.2345 3.82343 19.25 4.84654 19.25 6V12C19.25 12.1339 19.1339 12.25 19 12.25C18.8661 12.25 18.75 12.1339 18.75 12V6C18.75 5.45252 18.7507 4.93654 18.6953 4.49023C18.6394 4.03936 18.5202 3.60297 18.2412 3.23633C17.6738 2.4909 16.6216 2.25 15 2.25H9C7.37837 2.25 6.32615 2.4909 5.75879 3.23633C5.47976 3.60297 5.36064 4.03936 5.30469 4.49023C5.24934 4.93654 5.25 5.45252 5.25 6V12C5.25 12.1339 5.13386 12.25 5 12.25C4.86614 12.25 4.75 12.1339 4.75 12V6C4.75 4.84654 4.76554 3.82343 5.2627 3.0625C5.72306 2.3579 6.70169 1.75 9 1.75Z" fill="#353535" stroke="#AEAEAE"/>
</svg>
