<svg width="32" height="32" viewBox="0 0 32 32" fill="none" xmlns="http://www.w3.org/2000/svg">
<path d="M11.9997 2.16602H18.6667C18.9372 2.16602 19.1667 2.39549 19.1667 2.66602C19.1667 2.93654 18.9372 3.16602 18.6667 3.16602H11.9997C8.89122 3.16605 6.63479 3.7135 5.17447 5.17383C3.71414 6.63415 3.16669 8.89058 3.16666 11.999V19.999C3.16666 23.1074 3.71434 25.3638 5.17447 26.8242C6.63479 28.2845 8.89122 28.833 11.9997 28.833H19.9997C23.1083 28.833 25.3645 28.2846 26.8249 26.8242C28.2852 25.3638 28.8336 23.1076 28.8336 19.999V13.333C28.8336 13.0625 29.0631 12.833 29.3336 12.833C29.604 12.8332 29.8336 13.0626 29.8336 13.333V19.999C29.8336 23.5616 29.0702 25.9851 27.528 27.5273C25.9858 29.0695 23.5623 29.833 19.9997 29.833H11.9997C8.43736 29.833 6.01449 29.0694 4.47232 27.5273C2.93012 25.9851 2.16666 23.5616 2.16666 19.999V11.999C2.1667 8.4366 2.93016 6.01384 4.47232 4.47168C6.01448 2.92952 8.43724 2.16606 11.9997 2.16602Z" fill="#292D32" stroke="#868686"/>
<path d="M18.4772 2.20605C18.6516 2.13135 18.8675 2.16744 19.028 2.32031L29.6862 12.9795C29.8257 13.119 29.8708 13.3423 29.7936 13.5225C29.7108 13.7155 29.5295 13.8329 29.3336 13.833H23.9997C21.7659 13.833 20.3494 13.3946 19.4772 12.5225C18.605 11.6502 18.1667 10.2331 18.1667 7.99902V2.66602C18.1667 2.45939 18.2917 2.27808 18.4626 2.21094L18.4704 2.20898L18.4772 2.20605ZM19.1667 7.99902C19.1667 9.71936 19.379 10.9985 20.1901 11.8096C21.0012 12.6205 22.2796 12.833 23.9997 12.833H28.1266L27.2731 11.9795L20.0202 4.72559L19.1667 3.87207V7.99902Z" fill="#292D32" stroke="#868686"/>
<path d="M9.33334 16.834H17.3333C17.6039 16.834 17.8333 17.0635 17.8333 17.334C17.8333 17.6045 17.6039 17.834 17.3333 17.834H9.33334C9.06282 17.834 8.83334 17.6045 8.83334 17.334C8.83334 17.0635 9.06282 16.834 9.33334 16.834Z" fill="#292D32" stroke="#868686"/>
<path d="M9.33334 22.166H14.6664C14.9369 22.166 15.1664 22.3955 15.1664 22.666C15.1664 22.9365 14.9369 23.166 14.6664 23.166H9.33334C9.06282 23.166 8.83334 22.9365 8.83334 22.666C8.83334 22.3955 9.06282 22.166 9.33334 22.166Z" fill="#292D32" stroke="#868686"/>
</svg>
