<svg width="24" height="18" viewBox="0 0 24 18" fill="none" xmlns="http://www.w3.org/2000/svg">
<path d="M20.6803 1.13322L2.88735 1.18602C1.52031 1.19007 0.415397 2.30156 0.419454 3.6686L0.453474 15.1347C0.45753 16.5017 1.56902 17.6066 2.93606 17.6026L20.729 17.5498C22.096 17.5457 23.2009 16.4342 23.1969 15.0672L23.1629 3.60112C23.1588 2.23408 22.0473 1.12917 20.6803 1.13322Z" fill="url(#paint0_linear_2231_24043)"/>
<g style="mix-blend-mode:multiply">
<path d="M23.1768 6.23851V5.91106L16.0396 5.93326V4.33489L11.7884 1.09375L7.55936 4.36264V5.96101L0.427734 5.98321V6.31066L7.56491 6.28846V6.9267L0.433284 6.9489V7.27634L7.57046 7.25414L7.58156 11.6441L0.444384 11.6663V11.9938L7.58156 11.9716V12.5987L0.449934 12.6209V12.9483L7.58711 12.9261V14.5467L11.8383 17.7879L16.0674 14.519V12.8984L23.199 12.8762V12.5487L16.0618 12.5709V11.9438L23.1934 11.9216V11.5942L16.0563 11.6164L16.0452 7.22639L23.1823 7.20419V6.87675L16.0452 6.89895V6.26071L23.1768 6.23851ZM14.8297 5.25063L11.9604 3.15831V1.62654L15.6289 4.43479L14.8297 5.25618V5.25063ZM11.8328 15.4735L8.91353 13.3424L8.89133 5.54477L11.7995 3.39696L14.7187 5.52812L14.7409 13.3257L11.8383 15.4735H11.8328ZM11.633 3.15831L8.77479 5.26728L7.97005 4.45144L11.6274 1.62099V3.15276L11.633 3.15831ZM8.60274 5.55587L8.62494 13.3313L7.91455 14.0583L7.8868 4.83438L8.60274 5.55587ZM8.79699 13.6199L11.6663 15.7122V17.244L7.99225 14.4357L8.79144 13.6143L8.79699 13.6199ZM11.9937 15.7122L14.8519 13.6032L15.6567 14.4191L11.9993 17.2495V15.7177L11.9937 15.7122ZM15.024 13.3146L15.0018 5.53922L15.7122 4.81218L15.7399 14.0361L15.024 13.3146Z" fill="#D8A960"/>
</g>
<path d="M20.6803 1.13322L2.88735 1.18602C1.52031 1.19007 0.415397 2.30156 0.419454 3.6686L0.453474 15.1347C0.45753 16.5017 1.56902 17.6066 2.93606 17.6026L20.729 17.5498C22.096 17.5457 23.2009 16.4342 23.1969 15.0672L23.1629 3.60112C23.1588 2.23408 22.0473 1.12917 20.6803 1.13322Z" stroke="#D8A960" stroke-width="0.327444" stroke-miterlimit="10"/>
<defs>
<linearGradient id="paint0_linear_2231_24043" x1="0.447547" y1="9.39604" x2="23.1909" y2="9.32856" gradientUnits="userSpaceOnUse">
<stop stop-color="#FFFFC7"/>
<stop offset="0.58" stop-color="#FFCB68"/>
<stop offset="1" stop-color="#F5E08F"/>
</linearGradient>
</defs>
</svg>
