<svg width="20" height="20" viewBox="0 0 20 20" fill="none" xmlns="http://www.w3.org/2000/svg">
<path fill-rule="evenodd" clip-rule="evenodd" d="M10.1017 1.52539C5.51211 1.52539 1.76953 5.31427 1.76953 10.0154C1.76953 11.3635 2.07784 12.6376 2.62599 13.7689C2.67538 13.8708 2.70104 13.9827 2.70104 14.0959V17.5578H6.09092C6.20766 17.5578 6.32279 17.585 6.42714 17.6373C7.5358 18.1933 8.78304 18.5054 10.1017 18.5054C14.6914 18.5054 18.4339 14.7166 18.4339 10.0154C18.4339 5.31427 14.6914 1.52539 10.1017 1.52539ZM0.269531 10.0154C0.269531 4.51031 4.65943 0.0253906 10.1017 0.0253906C15.544 0.0253906 19.9339 4.51031 19.9339 10.0154C19.9339 15.5205 15.544 20.0054 10.1017 20.0054C8.60756 20.0054 7.18808 19.6658 5.91714 19.0578H2.64967C1.83748 19.0578 1.20104 18.3915 1.20104 17.597V14.2645C0.603043 12.9733 0.269531 11.5319 0.269531 10.0154Z" fill="#353535"/>
<path fill-rule="evenodd" clip-rule="evenodd" d="M9.35156 7.99414C9.35156 7.57993 9.68735 7.24414 10.1016 7.24414H14.1016C14.5158 7.24414 14.8516 7.57993 14.8516 7.99414C14.8516 8.40835 14.5158 8.74414 14.1016 8.74414H10.1016C9.68735 8.74414 9.35156 8.40835 9.35156 7.99414Z" fill="#353535"/>
<path fill-rule="evenodd" clip-rule="evenodd" d="M6.35156 11.4941C6.35156 11.0799 6.68735 10.7441 7.10156 10.7441H14.1016C14.5158 10.7441 14.8516 11.0799 14.8516 11.4941C14.8516 11.9084 14.5158 12.2441 14.1016 12.2441H7.10156C6.68735 12.2441 6.35156 11.9084 6.35156 11.4941Z" fill="#353535"/>
</svg>
