<svg width="24" height="24" viewBox="0 0 24 24" fill="none" xmlns="http://www.w3.org/2000/svg">
<path fill-rule="evenodd" clip-rule="evenodd" d="M12 5.20703C12.8284 5.20703 13.5 5.8786 13.5 6.70703L13.5 6.71503C13.5 7.54346 12.8284 8.21503 12 8.21503C11.1716 8.21503 10.5 7.54346 10.5 6.71503L10.5 6.70703C10.5 5.8786 11.1716 5.20703 12 5.20703Z" fill="#212121"/>
<path fill-rule="evenodd" clip-rule="evenodd" d="M12 10.4961C12.8284 10.4961 13.5 11.1677 13.5 11.9961L13.5 12.0041C13.5 12.8325 12.8284 13.5041 12 13.5041C11.1716 13.5041 10.5 12.8325 10.5 12.0041L10.5 11.9961C10.5 11.1677 11.1716 10.4961 12 10.4961Z" fill="#212121"/>
<path fill-rule="evenodd" clip-rule="evenodd" d="M12 15.7871C12.8284 15.7871 13.5 16.4587 13.5 17.2871L13.5 17.2951C13.5 18.1235 12.8284 18.7951 12 18.7951C11.1716 18.7951 10.5 18.1235 10.5 17.2951L10.5 17.2871C10.5 16.4587 11.1716 15.7871 12 15.7871Z" fill="#212121"/>
</svg>
