<svg width="32" height="32" viewBox="0 0 32 32" fill="none" xmlns="http://www.w3.org/2000/svg">
<path d="M9.33368 3.5H22.6667C25.5892 3.5 27.3216 3.9521 28.3513 4.98145C29.3808 6.01102 29.8337 7.74421 29.8337 10.667V21.333C29.8337 24.2558 29.3808 25.989 28.3513 27.0186C27.3216 28.0479 25.5892 28.5 22.6667 28.5H9.33368C6.4109 28.5 4.67771 28.0481 3.64813 27.0186C2.61856 25.989 2.16669 24.2558 2.16669 21.333V10.667C2.16669 7.74421 2.61856 6.01102 3.64813 4.98145C4.67771 3.95187 6.4109 3.5 9.33368 3.5ZM9.33368 4.5C8.13152 4.5 7.13806 4.55615 6.33075 4.72656C5.51792 4.89816 4.8573 5.19314 4.35614 5.69531C3.85506 6.19745 3.56172 6.85893 3.3913 7.6709C3.22211 8.47729 3.16669 9.46862 3.16669 10.667V21.333C3.16669 22.5314 3.22211 23.5227 3.3913 24.3291C3.56172 25.1411 3.85506 25.8026 4.35614 26.3047C4.8573 26.8069 5.51792 27.1018 6.33075 27.2734C7.13806 27.4439 8.13152 27.5 9.33368 27.5H22.6667C23.8686 27.5 24.8614 27.4438 25.6686 27.2734C26.4815 27.1018 27.143 26.8069 27.6442 26.3047C28.1452 25.8026 28.4377 25.141 28.6081 24.3291C28.7773 23.5227 28.8337 22.5314 28.8337 21.333V10.667C28.8337 9.46855 28.7773 8.47732 28.6081 7.6709C28.4377 6.85901 28.1452 6.19743 27.6442 5.69531C27.143 5.19311 26.4815 4.89816 25.6686 4.72656C24.8614 4.55623 23.8686 4.5 22.6667 4.5H9.33368Z" fill="#292D32" stroke="#0C0C0C"/>
<path d="M18.6667 10.166H25.3337C25.6041 10.1662 25.8337 10.3956 25.8337 10.666C25.8337 10.9364 25.6041 11.1658 25.3337 11.166H18.6667C18.3962 11.166 18.1667 10.9365 18.1667 10.666C18.1667 10.4295 18.3422 10.2246 18.5671 10.1768L18.6667 10.166Z" fill="#292D32" stroke="#0C0C0C"/>
<path d="M20 15.5H25.333C25.6035 15.5 25.833 15.7295 25.833 16C25.833 16.2705 25.6035 16.5 25.333 16.5H20C19.7295 16.5 19.5 16.2705 19.5 16C19.5 15.7295 19.7295 15.5 20 15.5Z" fill="#292D32" stroke="#0C0C0C"/>
<path d="M22.6667 20.834H25.3337C25.6041 20.8342 25.8337 21.0636 25.8337 21.334C25.8337 21.6044 25.6041 21.8338 25.3337 21.834H22.6667C22.3962 21.834 22.1667 21.6045 22.1667 21.334C22.1667 21.0635 22.3962 20.834 22.6667 20.834Z" fill="#292D32" stroke="#0C0C0C"/>
<path d="M11.3331 9.72656C12.9368 9.72656 14.247 11.0359 14.2471 12.6396C14.2471 14.2435 12.9369 15.5537 11.3331 15.5537C9.72932 15.5536 8.41998 14.2434 8.41998 12.6396C8.42012 11.036 9.72941 9.7267 11.3331 9.72656ZM11.3331 10.7266C10.2838 10.7267 9.42012 11.5904 9.41998 12.6396C9.41998 13.689 10.2837 14.5536 11.3331 14.5537C12.3825 14.5537 13.2471 13.6891 13.2471 12.6396C13.247 11.5903 12.3825 10.7266 11.3331 10.7266Z" fill="#292D32" stroke="#0C0C0C"/>
<path d="M10.2589 17.6436C10.9615 17.5797 11.6774 17.5788 12.38 17.6426V17.6436C14.4754 17.8416 16.1651 19.4618 16.465 21.5156L16.4894 21.7158C16.5153 21.9909 16.3123 22.2355 16.045 22.2617L15.965 22.2686C15.7272 22.2514 15.5229 22.0649 15.4972 21.8145C15.3262 20.1382 13.9779 18.7901 12.2853 18.6348L12.2833 18.6338L11.8019 18.6025C11.3202 18.5816 10.8382 18.5919 10.3566 18.6338L10.3546 18.6348C8.66347 18.7899 7.31349 20.1235 7.1427 21.8154V21.8174C7.11876 22.0618 6.92229 22.2431 6.70227 22.2637L6.60754 22.2627L6.59485 22.2617L6.49817 22.2412C6.28071 22.1731 6.1278 21.9565 6.15051 21.7158C6.36683 19.5526 8.08529 17.8357 10.257 17.6436H10.2589Z" fill="#292D32" stroke="#0C0C0C"/>
</svg>
