<svg width="40" height="40" viewBox="0 0 40 40" fill="none" xmlns="http://www.w3.org/2000/svg">
<path d="M20.0002 37.9173C10.1168 37.9173 2.0835 29.884 2.0835 20.0007C2.0835 10.1173 10.1168 2.08398 20.0002 2.08398C29.8835 2.08398 37.9168 10.1173 37.9168 20.0007C37.9168 29.884 29.8835 37.9173 20.0002 37.9173ZM20.0002 4.58398C11.5002 4.58398 4.5835 11.5007 4.5835 20.0007C4.5835 28.5007 11.5002 35.4173 20.0002 35.4173C28.5002 35.4173 35.4168 28.5007 35.4168 20.0007C35.4168 11.5007 28.5002 4.58398 20.0002 4.58398Z" fill="#18871E"/>
<path d="M17.6334 25.9673C17.3001 25.9673 16.9834 25.834 16.7501 25.6007L12.0334 20.884C11.5501 20.4007 11.5501 19.6007 12.0334 19.1173C12.5167 18.634 13.3167 18.634 13.8001 19.1173L17.6334 22.9507L26.2001 14.384C26.6834 13.9007 27.4834 13.9007 27.9667 14.384C28.4501 14.8673 28.4501 15.6673 27.9667 16.1507L18.5167 25.6007C18.2834 25.834 17.9667 25.9673 17.6334 25.9673Z" fill="#18871E"/>
</svg>
