<svg width="25" height="8" viewBox="0 0 25 8" fill="none" xmlns="http://www.w3.org/2000/svg">
<path d="M9.48404 0.155473L6.25551 7.85791H4.14905L2.56047 1.71014C2.46389 1.33201 2.38065 1.19329 2.08678 1.03402C1.60794 0.774052 0.816739 0.530525 0.121094 0.378449L0.168361 0.155473H3.55924C3.78083 0.155251 3.9952 0.234249 4.16365 0.378207C4.33211 0.522166 4.44355 0.7216 4.47786 0.940514L5.31737 5.39798L7.39094 0.155473H9.48404ZM17.7383 5.34352C17.7465 3.31002 14.9269 3.19802 14.9464 2.28967C14.9526 2.01327 15.2157 1.71939 15.7911 1.64438C16.4654 1.58033 17.1446 1.69962 17.7568 1.98963L18.1061 0.355843C17.5101 0.131783 16.8789 0.0159084 16.2422 0.0136719C14.2724 0.0136719 12.8862 1.06176 12.8739 2.56094C12.8616 3.66966 13.8634 4.28721 14.6187 4.65713C15.3955 5.03423 15.6565 5.27673 15.6524 5.61377C15.6472 6.13165 15.0338 6.35873 14.4604 6.36798C13.4586 6.38339 12.878 6.09774 12.4136 5.88195L12.0529 7.56918C12.5184 7.7829 13.3774 7.96992 14.2683 7.97814C16.3614 7.97814 17.7311 6.94443 17.7383 5.34352ZM22.9387 7.85791H24.7821L23.174 0.155473H21.4724C21.2905 0.153788 21.1124 0.206766 20.9611 0.307537C20.8097 0.408308 20.6922 0.552223 20.6236 0.72062L17.6345 7.85791H19.7266L20.1427 6.70707H22.6992L22.9387 7.85791ZM20.7161 5.12877L21.7642 2.23624L22.3684 5.12877H20.7161ZM12.3314 0.155473L10.6842 7.85791H8.69078L10.34 0.155473H12.3314Z" fill="white"/>
</svg>
